# xmcd
#
# Track frame offsets:
#	150
#	14653
#	31829
#	53907
#	79106
#	92264
#	107483
#	125106
#	146898
#	163233
#
# Disc length: 2394 seconds
#
# Revision: 0
# Processed by: cddbd v1.5.2PL0 Copyright (c) Steve Scherf et al.
# Submitted via: EasyCDDAExtractor 8.2.3.1
#
DISCID=8209580a
DTITLE=Doug And Jennifer Cassel - His Hand In Mine
DYEAR=2007
DGENRE=Gospel
TTITLE0=His Hand In Mine
TTITLE1=A Soulwinner's Prayer
TTITLE2=We Could See Revival
TTITLE3=It's Never Too Late
TTITLE4=Let Me Do The King's Business
TTITLE5=Faith As A Child
TTITLE6=Did He Get What He Paid For?
TTITLE7=From The Poorhouse To The Palace
TTITLE8=Why Seek The Living Among The Dead?
TTITLE9=The Red, White, And Blue
EXTD=
EXTT0=
EXTT1=
EXTT2=
EXTT3=
EXTT4=
EXTT5=
EXTT6=
EXTT7=
EXTT8=
EXTT9=
PLAYORDER=
